<svg width="40" height="37" viewBox="0 0 40 37" fill="none" xmlns="http://www.w3.org/2000/svg">
<path d="M26.8094 3.38477C27.1323 3.38494 27.3846 3.65615 27.3846 3.97754C27.3844 4.29879 27.1323 4.56916 26.8094 4.56934C24.5231 4.56934 22.4579 6.10877 21.7176 8.34668L21.6502 8.56543C21.5715 8.84112 21.3108 9.01769 21.0349 8.98535L21.0281 8.99512L20.9324 8.96484C20.6253 8.86962 20.4581 8.5388 20.5467 8.23047L20.6258 7.97168C21.5013 5.31394 23.9304 3.38477 26.8094 3.38477Z" fill="#FEAF00" stroke="#F9FFF9" stroke-width="0.3"/>
<path d="M32.7661 25.6396H30.213C29.978 25.6396 29.7874 25.4416 29.7874 25.1975C29.7874 24.9534 29.978 24.7554 30.213 24.7554H32.7661C36.2855 24.7554 39.1491 21.7805 39.1491 18.1242C39.1491 14.4679 36.2855 11.4929 32.7661 11.4929H32.7047C32.5813 11.4929 32.464 11.4374 32.3832 11.3404C32.3023 11.2435 32.2658 11.115 32.2835 10.988C32.3215 10.7127 32.3406 10.4361 32.3406 10.1667C32.3406 6.99794 29.8588 4.41961 26.8087 4.41961C25.6221 4.41961 24.4904 4.80485 23.536 5.53396C23.3263 5.69406 23.0284 5.62302 22.9071 5.38334C20.2041 0.0360679 13.1441 -0.682016 9.48388 3.96964C7.94197 5.92932 7.33613 8.47854 7.82159 10.9631C7.87509 11.2375 7.67296 11.4933 7.40457 11.4933H7.23405C3.71464 11.4933 0.851102 14.4682 0.851102 18.1245C0.851102 21.7808 3.71464 24.7557 7.23405 24.7557H9.7872C10.0222 24.7557 10.2127 24.9537 10.2127 25.1978C10.2127 25.4419 10.0222 25.6399 9.7872 25.6399H7.23405C3.24528 25.6399 0 22.2684 0 18.1245C0 14.0968 3.06562 10.7989 6.90001 10.617C6.53983 8.03929 7.22858 5.43921 8.82491 3.4101C12.7437 -1.57057 20.2539 -1.0123 23.4286 4.54151C24.4414 3.88185 25.6003 3.5358 26.8085 3.5358C30.504 3.5358 33.4322 6.80344 33.176 10.6211C36.9751 10.8424 40 14.123 40 18.1241C40 22.2684 36.7547 25.6396 32.7659 25.6396L32.7661 25.6396Z" fill="#FEAF00"/>
<path d="M19.9433 13.7452C25.8973 13.7454 30.7312 18.7761 30.7314 24.9474C30.7314 31.1188 25.8974 36.1494 19.9433 36.1495C13.9892 36.1495 9.15425 31.119 9.15425 24.9474C9.15447 18.776 13.9892 13.7452 19.9433 13.7452ZM19.9433 14.9298C14.635 14.9298 10.3058 19.4185 10.3056 24.9474C10.3056 30.4765 14.635 34.9659 19.9433 34.9659C25.2515 34.9658 29.58 30.4763 29.58 24.9474C29.5798 19.4186 25.2514 14.93 19.9433 14.9298Z" fill="#FEAF00" stroke="#F9FFF9" stroke-width="0.3"/>
<path d="M20.1375 20.5079C20.3976 20.5079 20.5992 20.7256 20.5994 20.9816V29.3966C20.5994 29.653 20.3976 29.8702 20.1375 29.8702C19.8773 29.8702 19.6756 29.6527 19.6756 29.3966V20.9816C19.6758 20.7257 19.8774 20.5079 20.1375 20.5079Z" fill="#FEAF00" stroke="#FEAF00" stroke-width="0.3"/>
<path d="M19.8815 20.5887C20.0615 20.4652 20.3073 20.4859 20.4654 20.6503L22.9576 23.2391L23.0162 23.3134C23.1327 23.4962 23.1129 23.7427 22.9576 23.9042L22.9586 23.9052C22.8911 23.9754 22.8067 24.0194 22.7184 24.037L22.6295 24.0458C22.5398 24.0457 22.4505 24.0184 22.3736 23.9657L22.3014 23.9052L20.1373 21.6561L17.9733 23.9052C17.8152 24.0693 17.5692 24.0898 17.3893 23.9667L17.317 23.9052C17.1394 23.7206 17.1394 23.4237 17.317 23.2391L19.8092 20.6503L19.8815 20.5887Z" fill="#FEAF00" stroke="#FEAF00" stroke-width="0.3"/>
</svg>
